<?xml version="1.0" standalone="no"?>
<svg
  width="600"
  height="600"
  viewBox="0 0 600 600"
  xmlns="http://www.w3.org/2000/svg"
>
  <g transform="translate(300,300)">
    <path d="M123.8,-187.8C153.5,-173.5,165.9,-127.5,168.9,-87.1C172,-46.6,165.7,-11.9,152.5,16C139.2,43.9,119.1,64.8,106.3,107.9C93.5,150.9,88,216,64.7,225.1C41.3,234.1,0.1,187.1,-39.6,162.7C-79.3,138.4,-117.5,136.6,-153.2,119.4C-188.9,102.2,-222.1,69.4,-221.8,35.3C-221.5,1.1,-187.6,-34.6,-170.5,-80.4C-153.5,-126.2,-153.2,-182.1,-127.6,-198.3C-102,-214.4,-51,-190.7,-2,-187.6C47,-184.5,94.1,-202,123.8,-187.8Z" fill="#0693e3" />
  </g>
</svg>
  