<?xml version="1.0" standalone="no"?>
<svg
  width="600"
  height="600"
  viewBox="0 0 600 600"
  xmlns="http://www.w3.org/2000/svg"
>
  <g transform="translate(300,300)">
    <path d="M105.2,-143.2C133.3,-101.8,150.8,-65.8,166,-22.9C181.3,20,194.1,69.8,180.5,114.5C166.9,159.2,126.9,199,83.6,203.3C40.2,207.7,-6.4,176.7,-55.2,156.7C-104,136.8,-155.1,127.9,-181,97.5C-207,67.1,-207.9,15.1,-190.5,-24.9C-173,-64.9,-137.3,-93,-102.5,-133.2C-67.7,-173.4,-33.9,-225.7,2.4,-228.5C38.6,-231.3,77.1,-184.6,105.2,-143.2Z" fill="#ff6900" />
  </g>
</svg>
  