<?xml version="1.0" standalone="no"?>
<!DOCTYPE svg PUBLIC "-//W3C//DTD SVG 20010904//EN"
 "http://www.w3.org/TR/2001/REC-SVG-20010904/DTD/svg10.dtd">
<svg version="1.0" xmlns="http://www.w3.org/2000/svg"
 width="1039.000000pt" height="1039.000000pt" viewBox="0 0 1039.000000 1039.000000"
 preserveAspectRatio="xMidYMid meet">
<metadata>
Created by potrace 1.11, written by Peter Selinger 2001-2013
</metadata>
<g transform="translate(0.000000,1039.000000) scale(0.100000,-0.100000)"
fill="#000000" stroke="none">
<path d="M5239 10266 c-2 -2 -44 -7 -92 -11 -48 -3 -97 -8 -107 -10 -10 -2
-46 -6 -79 -10 -33 -3 -70 -8 -83 -10 -13 -3 -41 -7 -63 -10 -22 -3 -47 -7
-55 -10 -8 -2 -32 -6 -52 -9 -201 -30 -704 -172 -873 -246 -11 -5 -60 -25
-110 -45 -111 -45 -430 -201 -507 -248 -31 -19 -59 -32 -62 -29 -3 3 -6 1 -6
-5 0 -5 -12 -15 -27 -22 -26 -12 -71 -40 -218 -138 -312 -206 -585 -440 -871
-744 -141 -150 -358 -429 -478 -614 -32 -49 -69 -106 -81 -125 -106 -163 -282
-513 -367 -730 -16 -41 -33 -84 -38 -95 -25 -54 -123 -368 -158 -510 -35 -135
-77 -336 -87 -410 -3 -27 -16 -114 -20 -143 -2 -13 -7 -53 -10 -90 -4 -37 -8
-78 -10 -91 -17 -105 -25 -579 -13 -753 6 -89 18 -80 -107 -81 l-70 -1 2 35
c4 66 4 144 -1 165 -7 35 -42 97 -68 121 -108 101 -334 51 -444 -98 -100 -137
-103 -375 -7 -520 30 -45 62 -67 156 -104 37 -15 70 -31 72 -36 8 -13 -17 -57
-73 -126 -60 -74 -68 -108 -58 -257 7 -116 25 -190 56 -242 18 -28 44 -46 126
-85 95 -45 120 -68 95 -83 -18 -11 -71 -136 -87 -203 -29 -121 -3 -291 54
-359 18 -21 102 -78 102 -69 0 2 12 0 28 -6 17 -8 158 -12 401 -13 l375 -2 21
-35 c12 -18 37 -61 55 -94 102 -185 295 -465 454 -660 14 -17 28 -49 30 -70 3
-22 9 -51 12 -65 14 -54 9 -195 -10 -250 -16 -50 -73 -181 -95 -221 -31 -55
-37 -194 -11 -303 17 -76 74 -190 118 -238 118 -128 290 -122 417 13 48 51
100 151 110 211 3 18 8 41 11 52 13 41 5 208 -13 270 -4 15 1 13 31 -10 l36
-29 -5 -210 c-4 -229 1 -203 -81 -400 -35 -85 -37 -96 -37 -195 0 -58 3 -122
7 -144 4 -21 9 -47 11 -57 2 -10 9 -27 15 -38 6 -12 8 -21 5 -21 -3 0 11 -32
31 -71 63 -119 158 -178 271 -166 65 7 119 37 199 110 32 31 61 53 64 51 2 -3
5 -52 5 -109 1 -97 4 -108 34 -167 110 -209 267 -271 460 -182 50 23 143 104
139 122 -1 4 5 21 12 37 18 41 21 240 5 318 -8 34 -16 76 -18 92 -3 17 -14 73
-25 125 -24 113 -35 220 -23 220 5 0 62 -23 127 -51 277 -119 646 -236 899
-284 151 -29 199 -37 255 -46 36 -5 76 -11 90 -14 14 -2 53 -7 87 -10 34 -3
71 -8 83 -10 125 -24 797 -25 940 -1 14 3 55 7 92 11 37 3 77 8 90 10 13 2 44
6 69 9 216 30 604 121 789 186 14 5 66 23 115 40 50 17 109 40 132 51 24 10
49 19 56 19 7 0 17 4 22 8 6 5 28 16 50 25 22 8 72 29 110 47 39 17 71 31 72
31 1 0 50 25 109 55 154 80 334 183 449 258 126 82 130 86 170 116 18 14 43
32 55 40 116 77 367 290 525 447 165 162 268 276 422 467 313 389 619 957 780
1446 34 103 81 260 88 290 1 8 8 35 15 60 7 25 14 52 15 60 13 58 46 219 50
240 11 65 35 220 40 265 4 28 8 57 10 65 27 104 27 904 0 1095 -2 17 -11 82
-20 145 -19 135 -17 125 -45 260 -34 163 -37 179 -64 280 -62 238 -138 453
-257 730 -71 166 -254 502 -346 638 -24 35 -43 66 -43 69 0 3 -13 22 -30 43
-16 21 -30 42 -30 48 0 6 -3 12 -8 14 -4 2 -39 46 -77 98 -136 185 -243 308
-434 504 -174 178 -419 391 -591 514 -113 81 -280 192 -289 192 -5 0 -11 4
-13 8 -5 13 -205 126 -370 210 -143 73 -313 149 -418 187 -25 9 -54 21 -65 26
-71 32 -476 157 -520 160 -3 0 -26 6 -52 14 -27 8 -64 17 -83 20 -19 3 -53 10
-75 15 -22 5 -53 11 -70 14 -16 3 -39 8 -50 10 -11 2 -45 7 -75 11 -30 4 -62
9 -70 10 -30 5 -188 24 -290 35 -73 7 -734 12 -741 6z m-4368 -5821 c25 -115
25 -115 5 -116 -12 -1 -36 -2 -53 -4 -28 -2 -33 1 -34 19 -10 179 -4 216 34
216 21 0 25 -8 48 -115z m177 -630 c14 -16 72 -185 64 -186 -4 0 -77 -3 -163
-5 l-155 -4 -3 53 c-3 51 -4 122 -2 142 1 14 247 13 259 0z m1982 -2444 c30
-19 58 -38 61 -43 8 -12 4 -386 -4 -418 -19 -73 -85 -236 -93 -227 -2 1 4 23
13 47 20 59 28 205 15 266 -6 27 -14 65 -16 84 -5 30 -22 123 -41 220 -3 14
-8 47 -11 74 -6 40 -5 48 7 41 8 -5 39 -24 69 -44z"/>
</g>
</svg>
